<?xml version="1.0" standalone="no"?>
<!DOCTYPE svg PUBLIC "-//W3C//DTD SVG 20010904//EN"
 "http://www.w3.org/TR/2001/REC-SVG-20010904/DTD/svg10.dtd">
<svg version="1.0" xmlns="http://www.w3.org/2000/svg"
 width="200.000000pt" height="200.000000pt" viewBox="0 0 280.000000 200.000000"
 preserveAspectRatio="xMidYMid meet">

<g transform="translate(0.000000,200.000000) scale(0.100000,-0.100000)"
fill="#005faf" stroke="none">
<path d="M630 1903 c0 -10 -13 -63 -29 -118 -16 -55 -26 -103 -22 -106 3 -4
137 -50 296 -103 439 -144 455 -150 458 -145 2 2 23 74 46 159 23 85 52 194
65 243 l25 87 -420 0 c-392 0 -419 -1 -419 -17z"/>
<path d="M1810 1763 c-23 -87 -53 -196 -65 -243 -44 -161 -94 -345 -150 -550
-31 -113 -63 -227 -70 -255 -37 -135 -120 -441 -145 -532 -15 -56 -25 -104
-23 -107 3 -3 189 -5 413 -6 l408 -1 11 33 c6 18 15 53 21 78 5 25 19 77 29
115 11 39 35 128 55 200 19 72 47 173 61 225 29 103 56 203 135 495 28 105 66
244 85 310 55 196 105 382 105 389 0 3 -186 6 -413 6 l-413 0 -44 -157z"/>
<path d="M543 1568 c-11 -40 -18 -76 -14 -80 3 -3 186 -66 406 -138 220 -73
459 -152 530 -175 72 -24 133 -41 136 -37 4 4 9 19 13 35 7 30 13 27 -169 102
-44 19 -136 57 -205 85 -445 185 -674 280 -675 280 -1 0 -11 -33 -22 -72z"/>
<path d="M497 1398 c-9 -29 -18 -64 -22 -78 -6 -25 -4 -26 520 -198 289 -95
533 -172 542 -170 17 3 37 55 24 63 -8 4 -230 96 -411 170 -58 24 -220 91
-360 150 -140 59 -260 109 -267 112 -7 3 -17 -17 -26 -49z"/>
<path d="M455 1248 c-12 -39 -35 -128 -35 -136 0 -6 37 -22 83 -37 45 -14 286
-94 536 -176 250 -82 456 -148 458 -145 2 2 6 19 9 37 l6 34 -94 37 c-142 56
-911 377 -930 388 -23 13 -28 13 -33 -2z"/>
<path d="M405 1057 c-20 -54 -265 -971 -261 -974 3 -3 188 -5 413 -4 l408 1
92 337 c51 185 91 339 89 341 -3 3 -361 154 -634 267 -68 29 -105 39 -107 32z"/>
</g>
</svg>
